<?xml version="1.0" encoding="utf-8"?>
<!-- Generator: Adobe Illustrator 22.0.0, SVG Export Plug-In . SVG Version: 6.00 Build 0)  -->
<svg version="1.1" id="Layer_1" xmlns="http://www.w3.org/2000/svg" xmlns:xlink="http://www.w3.org/1999/xlink" x="0px" y="0px"
	 viewBox="0 0 134 115" style="enable-background:new 0 0 134 115;" xml:space="preserve">
<style type="text/css">
	.st0{fill:#FFFFFF;}
</style>
<g id="Layer_2_1_">
	<g id="Layer_1-2">
		<rect x="22.5" y="24.4" width="72.8" height="50.2"/>
		<path class="st0" d="M61.4,57.2l-7.9,5.6l2.1,3.7c-0.9-0.1-1.7-0.4-2.5-0.7c-3-2.3-6.6-2.7-10.1-3.8c-6.7-2-10.5-7.7-9.8-13.9
			c0.7-6,6.1-10.7,12.8-11.3c4.5-0.6,9.1,0.7,12.6,3.7c0.6,0.5,1.2,1.8,1,2.2C56.3,47.7,57,52.4,61.4,57.2z M51.2,55.2
			c0-3.4,0.1-6,0-8.7c0-1.7-1.3-3-3-3h-0.1c-1.6-0.1-3.2-0.2-4.2,1.8c5.2-1,5.9-0.7,5.8,2.4c-1.5,0.2-2.9,0.5-4.3,0.9
			c-1.6,0.3-2.7,1.9-2.4,3.5c0,0.1,0.1,0.2,0.1,0.3c0.4,1.9,1.8,2.5,3.5,2.3c1.1-0.2,2.1-0.6,3.1-1.1L51.2,55.2z"/>
		<path class="st0" d="M65.8,62.8l1.8-3c-0.4-0.3-0.7-0.6-1.1-0.8c-5.2-2.5-8-6.8-7.3-11.3c1-5.2,5.2-9.3,10.5-10
			c4.1-0.8,8.3,0.3,11.5,2.9c6.1,5.2,4.9,14.1-2.5,17.7C74.6,60.2,70.3,61.3,65.8,62.8z M67.5,53.3L68,54l4.2-3.6l4.2,3.5l0.4-0.5
			l-4.4-4.7l4.5-0.3c-1.3-1.4-4,0.7-4.1-2c0-0.6,1.9-1.3,2.8-1.8h-7.3c0.6,0.4,1.2,0.3,1.7,0.5c0.6,0.4,1.1,0.8,1.6,1.3
			c-0.5,0.5-1.1,1-1.7,1.3c-0.7,0.2-1.5,0.2-2.2,0.2v0.5l3.5,0.2l0.8,1.1L67.5,53.3z"/>
		<path d="M51.2,55.2l-1.5-1.4c-1,0.5-2,0.8-3.1,1.1c-1.7,0.2-3.2-0.5-3.5-2.3c-0.5-1.6,0.4-3.3,2-3.8c0.1,0,0.2-0.1,0.3-0.1
			c1.4-0.4,2.9-0.7,4.3-0.9c0-3.1-0.6-3.4-5.8-2.4c1-2,2.7-1.9,4.2-1.8c1.7,0,3,1.3,3.1,2.9v0.1C51.3,49.2,51.2,51.9,51.2,55.2z
			 M49.8,49.4c-3.7-0.2-5.5,0.5-5.3,2.2c0.3,1,1.1,1.8,2.1,2.1C48.7,54.1,50,52.3,49.8,49.4z"/>
		<path d="M67.5,53.3l4.5-3.5l-0.8-1.1l-3.5-0.2V48c0.7,0,1.5,0,2.2-0.2c0.6-0.3,1.2-0.8,1.7-1.3c-0.5-0.5-1-0.9-1.6-1.3
			c-0.5-0.2-1.1-0.1-1.7-0.5h7.3c-0.8,0.5-2.8,1.2-2.8,1.8c0.1,2.7,2.8,0.6,4.1,2l-4.5,0.3l4.4,4.7L76.4,54l-4.2-3.5L68,54
			L67.5,53.3z"/>
		<path class="st0" d="M49.8,49.4c0.1,2.9-1.1,4.7-3.2,4.3c-1-0.3-1.8-1.1-2.1-2.1C44.3,50,46.2,49.2,49.8,49.4z"/>
	</g>
</g>
</svg>
