<?xml version="1.0" encoding="utf-8"?>
<!-- Generator: Adobe Illustrator 22.0.0, SVG Export Plug-In . SVG Version: 6.00 Build 0)  -->
<svg version="1.1" id="Layer_1" xmlns="http://www.w3.org/2000/svg" xmlns:xlink="http://www.w3.org/1999/xlink" x="0px" y="0px"
	 viewBox="0 0 150.1 97.8" style="enable-background:new 0 0 150.1 97.8;" xml:space="preserve">
<style type="text/css">
	.st0{fill:#FFFFFF;}
	.st1{fill:none;}
	.st2{font-family:'Futura-Medium';}
	.st3{font-size:50px;}
</style>
<title>Asset 2</title>
<g id="Layer_2_1_">
	<g id="Layer_1-2">
		<rect x="29.1" class="st0" width="64.2" height="68.2"/>
		<path d="M68,32.8l-7.9,5.6l2.1,3.7c-0.9-0.1-1.7-0.4-2.5-0.7c-3-2.3-6.6-2.7-10.1-3.8c-6.7-2-10.5-7.7-9.8-13.9
			c0.7-6,6.1-10.7,12.8-11.3c4.5-0.6,9.1,0.7,12.6,3.7c0.6,0.5,1.2,1.8,1,2.2C62.9,23.3,63.6,28,68,32.8z M57.8,30.8
			c0-3.4,0.1-6,0-8.7c0-1.7-1.3-3-3-3h-0.1c-1.6-0.1-3.2-0.2-4.2,1.8c5.2-1,5.9-0.7,5.8,2.4c-1.5,0.2-2.9,0.5-4.3,0.9
			c-1.6,0.3-2.7,1.9-2.4,3.5c0,0.1,0.1,0.2,0.1,0.3c0.4,1.9,1.8,2.5,3.5,2.3c1.1-0.2,2.1-0.6,3.1-1.1L57.8,30.8z"/>
		<path d="M72.4,38.4l1.8-3c-0.4-0.3-0.7-0.6-1.1-0.8c-5.2-2.5-8-6.8-7.3-11.3c1-5.2,5.2-9.3,10.5-10c4.1-0.8,8.3,0.3,11.5,2.9
			c6.1,5.2,4.9,14.1-2.5,17.7C81.2,35.8,76.9,36.9,72.4,38.4z M74.1,28.9l0.5,0.7l4.2-3.6l4.2,3.5l0.4-0.5L79,24.3l4.5-0.3
			c-1.3-1.4-4,0.7-4.1-2c0-0.6,1.9-1.3,2.8-1.8h-7.3c0.6,0.4,1.2,0.3,1.7,0.5c0.6,0.4,1.1,0.8,1.6,1.3c-0.5,0.5-1.1,1-1.7,1.3
			c-0.7,0.2-1.5,0.2-2.2,0.2V24l3.5,0.2l0.8,1.1L74.1,28.9z"/>
		<path class="st0" d="M57.8,30.8l-1.5-1.4c-1,0.5-2,0.8-3.1,1.1c-1.7,0.2-3.2-0.5-3.5-2.3c-0.5-1.6,0.4-3.3,2-3.8
			c0.1,0,0.2-0.1,0.3-0.1c1.4-0.4,2.9-0.7,4.3-0.9c0-3.1-0.6-3.4-5.8-2.4c1-2,2.7-1.9,4.2-1.8c1.7,0,3,1.3,3.1,2.9v0.1
			C57.9,24.8,57.8,27.5,57.8,30.8z M56.4,25c-3.7-0.2-5.5,0.5-5.3,2.2c0.3,1,1.1,1.8,2.1,2.1C55.3,29.7,56.6,27.9,56.4,25z"/>
		<path class="st0" d="M74.1,28.9l4.5-3.5l-0.8-1.1l-3.5-0.2v-0.5c0.7,0,1.5,0,2.2-0.2c0.6-0.3,1.2-0.8,1.7-1.3
			c-0.5-0.5-1-0.9-1.6-1.3c-0.5-0.2-1.1-0.1-1.7-0.5h7.3c-0.8,0.5-2.8,1.2-2.8,1.8c0.1,2.7,2.8,0.6,4.1,2L79,24.4l4.4,4.7L83,29.6
			l-4.2-3.5l-4.2,3.5L74.1,28.9z"/>
		<path d="M56.4,25c0.1,2.9-1.1,4.7-3.2,4.3c-1-0.3-1.8-1.1-2.1-2.1C50.9,25.6,52.8,24.8,56.4,25z"/>
	</g>
</g>
<rect x="42.8" y="43.7" class="st1" width="50.5" height="24.5"/>
<text transform="matrix(1 0 0 1 1.831055e-04 83.393)" class="st2 st3">scrippt</text>
</svg>
