<?xml version="1.0" encoding="utf-8"?>
<!-- Generator: Adobe Illustrator 22.0.0, SVG Export Plug-In . SVG Version: 6.00 Build 0)  -->
<svg version="1.1" id="Layer_1" xmlns="http://www.w3.org/2000/svg" xmlns:xlink="http://www.w3.org/1999/xlink" x="0px" y="0px"
	 viewBox="0 0 152 54" style="enable-background:new 0 0 152 54;" xml:space="preserve">
<style type="text/css">
	.st0{fill:#FFFFFF;}
	.st1{fill:none;}
	.st2{font-family:'Futura-Medium';}
	.st3{font-size:25px;}
</style>
<g id="Layer_2_1_">
	<g id="Layer_1-2">
		<path d="M41,35.8l-7.9,5.6l2.1,3.7c-0.9-0.1-1.7-0.4-2.5-0.7c-3-2.3-6.6-2.7-10.1-3.8c-6.7-2-10.5-7.7-9.8-13.9
			c0.7-6,6.1-10.7,12.8-11.3c4.5-0.6,9.1,0.7,12.6,3.7c0.6,0.5,1.2,1.8,1,2.2C35.9,26.3,36.6,31,41,35.8z M30.8,33.9
			c0-3.4,0.1-6,0-8.7c0-1.7-1.3-3-3-3c0,0-0.1,0-0.1,0c-1.6-0.1-3.2-0.2-4.2,1.8c5.2-1,5.9-0.7,5.8,2.4c-1.5,0.2-2.9,0.5-4.3,0.9
			c-1.6,0.3-2.7,1.9-2.4,3.5c0,0.1,0.1,0.2,0.1,0.3c0.4,1.9,1.8,2.5,3.5,2.3c1.1-0.2,2.1-0.6,3.1-1.1L30.8,33.9z"/>
		<path d="M45.5,41.4l1.8-3c-0.4-0.3-0.7-0.6-1.1-0.8c-5.2-2.5-8-6.8-7.3-11.3c1-5.2,5.2-9.3,10.5-10c4.1-0.8,8.3,0.3,11.5,2.9
			c6.1,5.2,4.9,14.1-2.5,17.7C54.2,38.8,49.9,39.9,45.5,41.4z M47.1,31.9l0.5,0.6l4.2-3.6l4.2,3.5l0.4-0.5L52,27.3l4.5-0.3
			c-1.3-1.4-4,0.7-4.1-2c0-0.6,1.9-1.3,2.8-1.8h-7.3c0.6,0.4,1.2,0.3,1.7,0.5c0.6,0.4,1.1,0.8,1.6,1.3c-0.5,0.5-1.1,1-1.7,1.3
			c-0.7,0.2-1.5,0.2-2.2,0.2V27l3.5,0.2l0.8,1.1L47.1,31.9z"/>
		<path class="st0" d="M30.8,33.9l-1.5-1.4c-1,0.5-2,0.8-3.1,1.1c-1.7,0.2-3.2-0.5-3.5-2.3c-0.5-1.6,0.4-3.3,2-3.8
			c0.1,0,0.2-0.1,0.3-0.1c1.4-0.4,2.9-0.7,4.3-0.9c0-3.1-0.6-3.4-5.8-2.4c1-2,2.7-1.9,4.2-1.8c1.7,0,3,1.3,3.1,2.9c0,0,0,0.1,0,0.1
			C31,27.8,30.8,30.5,30.8,33.9z M29.4,28c-3.7-0.2-5.5,0.5-5.3,2.2c0.3,1,1.1,1.8,2.1,2.1C28.3,32.7,29.6,30.9,29.4,28z"/>
		<path class="st0" d="M47.1,31.9l4.5-3.5l-0.8-1.1L47.3,27v-0.5c0.7,0,1.5,0,2.2-0.2c0.6-0.3,1.2-0.8,1.7-1.3
			c-0.5-0.5-1-0.9-1.6-1.3c-0.5-0.2-1.1-0.1-1.7-0.5h7.3c-0.8,0.5-2.8,1.2-2.8,1.8c0.1,2.7,2.8,0.6,4.1,2L52,27.3l4.4,4.7L56,32.4
			L51.8,29l-4.2,3.6L47.1,31.9z"/>
		<path d="M29.4,28c0.1,2.9-1.1,4.7-3.2,4.3c-1-0.3-1.8-1.1-2.1-2.1C23.9,28.6,25.8,27.8,29.4,28z"/>
	</g>
</g>
<rect x="68" y="13.1" class="st1" width="81.5" height="29.8"/>
<text transform="matrix(1 0 0 1 68 33.7335)" class="st2 st3">scrippt</text>
</svg>
